# xmcd
#
# Track frame offsets:
#	150
#	10567
#	22635
#	32502
#	43150
#	54940
#	66992
#	79692
#	91107
#	102462
#	112875
#	124762
#	134352
#	144637
#	156430
#	167065
#	183117
#	194492
#	204190
#	214735
#	226222
#	236975
#	249697
#	259980
#	273097
#	286495
#	298585
#	313157
#	324942
#
# Disc length: 4476 seconds
#
# Revision: 3
# Processed by: cddbd v1.5.2PL0 Copyright (c) Steve Scherf et al.
# Submitted via: EasyCDDAExtractor 8.2.3.1
#
DISCID=98117a1d
DTITLE=Various Artist - Classic Recordings [Disc3]
DYEAR=196
DGENRE=Country
TTITLE0=Marvin Rainwater - Hey Good Lookin'
TTITLE1=Marvin Rainwater - Do It Now
TTITLE2=Marvin Rainwater - It Wasn't Enough
TTITLE3=Marvin Rainwater - That Little House
TTITLE4=Marvin Rainwater and Bill Guess - Part Time Lover
TTITLE5=Marvin Rainwater and Bill Guess - That Aching Heart
TTITLE6=Marvin Rainwater and Bill Guess - Love's Prison
TTITLE7=Marvin Rainwater and Bill Guess - These Thoughts Of You
TTITLE8=Marvin Rainwater and Bill Guess - Bad Girl
TTITLE9=Marvin Rainwater and Bill Guess - I Saw Your New Love Today
TTITLE10=Marvin Rainwater - My Old Home Town
TTITLE11=Marvin Rainwater - Branded
TTITLE12=Marvin Rainwater - It Wasn't Enough
TTITLE13=Marvin Rainwater - Sing The Girls A Song
TTITLE14=Marvin Rainwater - Indian Burial Ground
TTITLE15=Marvin Rainwater - The Black Sheep
TTITLE16=Marvin Rainwater - Troubles My Little Boy Had
TTITLE17=Marvin Rainwater - Sorrow Brings A Good Man Down
TTITLE18=Marvin Rainwater - I Want Your Heart
TTITLE19=Marvin Rainwater - Talk To Me
TTITLE20=Marvin Rainwater - Run For Your Life Boy 1967
TTITLE21=Marvin Rainwater  Bill Guess - The Old Gang's Gone
TTITLE22=Marvin Rainwater - Cold Woman (Double Tracked Vocal)
TTITLE23=Marvin Rainwater - Oklahoma Hills
TTITLE24=Marvin Rainwater and Patty Rainwater - Wedding Rings
TTITLE25=Marvin Rainwater - Let Me Live Again
TTITLE26=Marvin Rainwater - I Love My Country
TTITLE27=Marvin Rainwater - Burning Bridges
TTITLE28=Marvin Rainwater - Black Jack Mc Clain
EXTD=
EXTT0=
EXTT1=
EXTT2=
EXTT3=
EXTT4=
EXTT5=
EXTT6=
EXTT7=
EXTT8=
EXTT9=
EXTT10=
EXTT11=
EXTT12=
EXTT13=
EXTT14=
EXTT15=
EXTT16=
EXTT17=
EXTT18=
EXTT19=
EXTT20=
EXTT21=
EXTT22=
EXTT23=
EXTT24=
EXTT25=
EXTT26=
EXTT27=
EXTT28=
PLAYORDER=
